<?xml version="1.0" encoding="UTF-8"?>
<svg id="Layer_1" data-name="Layer 1" xmlns="http://www.w3.org/2000/svg" xmlns:xlink="http://www.w3.org/1999/xlink" viewBox="0 0 120.87 133.67">
  <defs>
    <style>
      .cls-1 {
        stroke-width: 1.91px;
      }

      .cls-1, .cls-2 {
        fill: none;
        stroke: #263461;
        stroke-miterlimit: 10;
      }

      .cls-2 {
        stroke-width: 1.87px;
      }

      .cls-3 {
        fill: #263461;
        font-family: Barlow-SemiBold, Barlow;
        font-size: 16px;
        font-weight: 600;
      }
    </style>
  </defs>
  <text class="cls-3" transform="translate(13.41 109.28) rotate(43.77)"><tspan x="0" y="0">T</tspan></text>
  <text class="cls-3" transform="translate(22.2 117.4) rotate(32.7)"><tspan x="0" y="0">H</tspan></text>
  <text class="cls-3" transform="translate(33.24 124.14) rotate(21.26)"><tspan x="0" y="0">R</tspan></text>
  <text class="cls-3" transform="translate(44.98 128.41) rotate(10.15)"><tspan x="0" y="0">E</tspan></text>
  <text class="cls-3" transform="translate(57 130.3) rotate(-.66)"><tspan x="0" y="0">E</tspan></text>
  <text class="cls-3" transform="translate(68.93 129.84) rotate(-9.61)"><tspan x="0" y="0">-</tspan></text>
  <text class="cls-3" transform="translate(77.78 128.32) rotate(-18.7)"><tspan x="0" y="0">R</tspan></text>
  <text class="cls-3" transform="translate(89.55 124.1) rotate(-29.73)"><tspan x="0" y="0">E</tspan></text>
  <text class="cls-3" transform="translate(100.02 117.82) rotate(-41.38)"><tspan x="0" y="0">X</tspan></text>
  <text class="cls-3" transform="translate(25.76 26.48) rotate(-35.15)"><tspan x="0" y="0">M</tspan></text>
  <text class="cls-3" transform="translate(35.55 19.74) rotate(-23.14)"><tspan x="0" y="0">O</tspan></text>
  <text class="cls-3" transform="translate(45.13 15.65) rotate(-11.33)"><tspan x="0" y="0">N</tspan></text>
  <text class="cls-3" transform="translate(56.39 13.71) rotate(-2.35)"><tspan x="0" y="0">I</tspan></text>
  <text class="cls-3" transform="translate(61.68 13.57) rotate(2.81)"><tspan x="0" y="0"> </tspan></text>
  <text class="cls-3" transform="translate(65.72 13.57) rotate(11.03)"><tspan x="0" y="0">A</tspan></text>
  <text class="cls-3" transform="translate(76.33 15.66) rotate(23.02)"><tspan x="0" y="0">N</tspan></text>
  <text class="cls-3" transform="translate(86.48 20.06) rotate(34.59)"><tspan x="0" y="0">D</tspan></text>
  <path class="cls-2" d="M14.64,103.2C-4.71,79.04-3.41,45.27,17.53,27.34"/>
  <path class="cls-1" d="M102.33,25.16c21.75,19.9,23.56,54.25,4.11,77.16"/>
  <image width="92" height="74" transform="translate(18.88 30.73) scale(.89)" xlink:href="../Downloads/Moni and 3rex.jpg"/>
</svg>